<svg width="48" height="48" viewBox="0 0 48 48" fill="none" xmlns="http://www.w3.org/2000/svg">
<g clip-path="url(#clip0_166_73)">
<rect width="48" height="48" rx="12" fill="url(#paint0_linear_166_73)"/>
<path d="M9 31.616L24 6L39 31.616L34.5949 35.2024L26.251 29.4331H31.0254L24 16.9756L16.9746 29.4331H21.749L13.4051 35.2024L9 31.616Z" fill="#ED1B24"/>
<path d="M22.1448 38.5766C22.1448 38.6669 22.1195 38.753 22.07 38.8282L20.2722 41.6384L20.2322 41.7006H18.9526L19.0915 41.4869L20.9828 38.536H19.746L18.8271 39.975L18.787 40.0399H18.2715L19.2304 38.536H18.2928C18.201 38.536 18.1172 38.5566 18.0417 38.5983C17.9653 38.6406 17.9037 38.6997 17.8547 38.7741L16.0169 41.6384L15.9768 41.7006H14.7L14.8362 41.4869L16.5619 38.793L16.2306 38.3197L16.0784 38.1006H21.6853C21.7735 38.1006 21.8563 38.1258 21.9284 38.1763C21.9917 38.2186 22.0523 38.2768 22.0887 38.344C22.127 38.4151 22.1447 38.4945 22.1448 38.5766Z" fill="black"/>
<path fill-rule="evenodd" clip-rule="evenodd" d="M24.2391 41.7006H25.5266L25.5667 41.6384L27.3671 38.8227C27.4129 38.7472 27.4392 38.6639 27.4392 38.5766C27.439 38.4481 27.3947 38.3354 27.3057 38.2439C27.2178 38.1487 27.1032 38.1006 26.9744 38.1006H23.1145L23.0717 38.1628L22.9675 38.3224L22.826 38.536H26.2772L24.5208 41.2651H23.7502C23.6588 41.265 23.5769 41.2417 23.5018 41.2002C23.4639 41.1792 23.4286 41.1558 23.3976 41.1272L23.3148 41.0271L22.7832 40.1995H25.0752L25.1152 40.1345L25.2141 39.975L25.345 39.7613H22.0914C22.0456 39.7613 22.0001 39.7675 21.9578 39.7802L21.8376 39.837C21.7733 39.8788 21.7157 39.9421 21.6746 40.0074C21.6364 40.0787 21.6186 40.1578 21.6186 40.24C21.6187 40.3298 21.6442 40.414 21.6933 40.4889L22.2383 41.33C22.3115 41.4465 22.4093 41.5411 22.5268 41.6059C22.6467 41.6691 22.776 41.7006 22.9114 41.7006H24.2391Z" fill="black"/>
<path d="M31.943 40.2292L33.3 38.1006H27.6529L27.8025 38.317L28.1284 38.7984L26.4001 41.4869L26.2639 41.7006H27.5434L27.5835 41.6384L29.4133 38.7741C29.4623 38.6996 29.5237 38.6406 29.6003 38.5983C29.6757 38.5566 29.7596 38.536 29.8514 38.536H31.7506L30.8584 39.9155C30.8094 39.99 30.7482 40.0489 30.6715 40.0913C30.5952 40.1333 30.5148 40.1535 30.4284 40.1535H28.7428L28.7027 40.2211L28.6039 40.3861L28.481 40.5971H31.2752C31.4109 40.5971 31.5427 40.5617 31.6598 40.497C31.7734 40.4289 31.8702 40.3397 31.943 40.2292Z" fill="black"/>
</g>
<defs>
<linearGradient id="paint0_linear_166_73" x1="24" y1="0" x2="24" y2="48" gradientUnits="userSpaceOnUse">
<stop stop-color="white"/>
<stop offset="1" stop-color="#E2E2E2"/>
</linearGradient>
<clipPath id="clip0_166_73">
<rect width="48" height="48" fill="white"/>
</clipPath>
</defs>
</svg>
