<svg width="128" height="128" viewBox="0 0 128 128" fill="none" xmlns="http://www.w3.org/2000/svg">
<g clip-path="url(#clip0_166_81)">
<rect width="128" height="128" rx="32" fill="url(#paint0_linear_166_81)"/>
<path d="M24 84.3095L64 16L104 84.3095L92.253 93.8729L70.0026 78.4883H82.7343L64 45.2683L45.2657 78.4883H57.9974L35.747 93.8729L24 84.3095Z" fill="#ED1B24"/>
<path d="M59.0528 102.871C59.0528 103.112 58.9853 103.341 58.8533 103.542L54.0593 111.036L53.9524 111.202H50.5403L50.9108 110.632L55.9541 102.763H52.656L50.2056 106.6L50.0987 106.773H48.7239L51.2812 102.763H48.7809C48.5361 102.763 48.3124 102.818 48.1113 102.929C47.9074 103.042 47.7432 103.199 47.6126 103.398L42.7118 111.036L42.6049 111.202H39.2L39.5632 110.632L44.1649 103.448L43.2816 102.186L42.8756 101.602H57.8276C58.0628 101.602 58.2835 101.669 58.4758 101.804C58.6445 101.916 58.8061 102.071 58.9032 102.251C59.0054 102.44 59.0524 102.652 59.0528 102.871Z" fill="black"/>
<path fill-rule="evenodd" clip-rule="evenodd" d="M64.6375 111.202H68.071L68.1778 111.036L72.979 103.527C73.1012 103.326 73.1713 103.104 73.1713 102.871C73.1707 102.528 73.0524 102.228 72.8151 101.984C72.5809 101.73 72.2753 101.602 71.9318 101.602H61.6386L61.5246 101.767L61.2468 102.193L60.8692 102.763H70.0726L65.3889 110.04H63.3339C63.0902 110.04 62.8718 109.978 62.6714 109.867C62.5703 109.811 62.4763 109.749 62.3936 109.672L62.1728 109.406L60.7553 107.199H66.8671L66.974 107.025L67.2375 106.6L67.5866 106.03H58.9103C58.7884 106.03 58.667 106.047 58.5541 106.081L58.2336 106.232C58.0621 106.343 57.9085 106.512 57.7991 106.686C57.697 106.876 57.6495 107.087 57.6495 107.307C57.6498 107.546 57.7178 107.771 57.8489 107.97L59.3021 110.213C59.4972 110.524 59.7583 110.776 60.0714 110.949C60.3913 111.118 60.7361 111.202 61.0972 111.202H64.6375Z" fill="black"/>
<path d="M85.1813 107.278L88.7999 101.602H73.7412L74.1401 102.179L75.0091 103.462L70.4003 110.632L70.037 111.202H73.4491L73.5559 111.036L78.4354 103.398C78.5662 103.199 78.7298 103.042 78.9341 102.929C79.1352 102.818 79.3589 102.763 79.6037 102.763H84.6684L82.2892 106.441C82.1583 106.64 81.9951 106.797 81.7906 106.91C81.5873 107.022 81.3728 107.076 81.1423 107.076H76.6475L76.5406 107.256L76.2771 107.696L75.9494 108.259H83.4004C83.7625 108.259 84.1138 108.164 84.4262 107.992C84.7292 107.811 84.9873 107.573 85.1813 107.278Z" fill="black"/>
</g>
<defs>
<linearGradient id="paint0_linear_166_81" x1="64" y1="0" x2="64" y2="128" gradientUnits="userSpaceOnUse">
<stop stop-color="white"/>
<stop offset="1" stop-color="#E2E2E2"/>
</linearGradient>
<clipPath id="clip0_166_81">
<rect width="128" height="128" fill="white"/>
</clipPath>
</defs>
</svg>
