<svg width="32" height="32" viewBox="0 0 32 32" fill="none" xmlns="http://www.w3.org/2000/svg">
<g clip-path="url(#clip0_166_69)">
<rect width="32" height="32" rx="8" fill="url(#paint0_linear_166_69)"/>
<path d="M6 21.0774L16 4L26 21.0774L23.0632 23.4682L17.5007 19.6221H20.6836L16 11.3171L11.3164 19.6221H14.4993L8.93676 23.4682L6 21.0774Z" fill="#ED1B24"/>
<path d="M14.7632 25.7177C14.7632 25.7779 14.7463 25.8353 14.7133 25.8854L13.5148 27.7589L13.4881 27.8004H12.6351L12.7277 27.6579L13.9885 25.6907H13.164L12.5514 26.65L12.5247 26.6933H12.181L12.8203 25.6907H12.1952C12.134 25.6907 12.0781 25.7044 12.0278 25.7322C11.9768 25.7604 11.9358 25.7998 11.9032 25.8494L10.6779 27.7589L10.6512 27.8004H9.79999L9.89081 27.6579L11.0412 25.862L10.8204 25.5464L10.7189 25.4004H14.4569C14.5157 25.4004 14.5709 25.4172 14.6189 25.4509C14.6611 25.4791 14.7015 25.5179 14.7258 25.5627C14.7513 25.6101 14.7631 25.663 14.7632 25.7177Z" fill="black"/>
<path fill-rule="evenodd" clip-rule="evenodd" d="M16.1594 27.8004H17.0177L17.0445 27.7589L18.2447 25.8818C18.2753 25.8315 18.2928 25.7759 18.2928 25.7177C18.2927 25.6321 18.2631 25.5569 18.2038 25.496C18.1452 25.4324 18.0688 25.4004 17.983 25.4004H15.4096L15.3811 25.4419L15.3117 25.5482L15.2173 25.6907H17.5182L16.3472 27.5101H15.8335C15.7725 27.51 15.718 27.4945 15.6679 27.4668C15.6426 27.4528 15.6191 27.4372 15.5984 27.4181L15.5432 27.3514L15.1888 26.7996H16.7168L16.7435 26.7564L16.8094 26.65L16.8966 26.5075H14.7276C14.6971 26.5075 14.6668 26.5117 14.6385 26.5202L14.5584 26.558C14.5155 26.5859 14.4771 26.6281 14.4498 26.6716C14.4243 26.7191 14.4124 26.7719 14.4124 26.8267C14.4125 26.8865 14.4294 26.9427 14.4622 26.9926L14.8255 27.5534C14.8743 27.631 14.9396 27.694 15.0179 27.7373C15.0978 27.7794 15.184 27.8004 15.2743 27.8004H16.1594Z" fill="black"/>
<path d="M21.2953 26.8195L22.2 25.4004H18.4353L18.535 25.5446L18.7523 25.8656L17.6001 27.6579L17.5093 27.8004H18.3623L18.389 27.7589L19.6089 25.8494C19.6416 25.7997 19.6825 25.7604 19.7335 25.7322C19.7838 25.7044 19.8397 25.6907 19.9009 25.6907H21.1671L20.5723 26.6103C20.5396 26.66 20.4988 26.6993 20.4476 26.7275C20.3968 26.7556 20.3432 26.769 20.2856 26.769H19.1619L19.1352 26.8141L19.0693 26.9241L18.9873 27.0647H20.8501C20.9406 27.0647 21.0285 27.0411 21.1066 26.998C21.1823 26.9526 21.2468 26.8931 21.2953 26.8195Z" fill="black"/>
</g>
<defs>
<linearGradient id="paint0_linear_166_69" x1="16" y1="0" x2="16" y2="32" gradientUnits="userSpaceOnUse">
<stop stop-color="white"/>
<stop offset="1" stop-color="#E2E2E2"/>
</linearGradient>
<clipPath id="clip0_166_69">
<rect width="32" height="32" fill="white"/>
</clipPath>
</defs>
</svg>
