<svg width="16" height="16" viewBox="0 0 16 16" fill="none" xmlns="http://www.w3.org/2000/svg">
<g clip-path="url(#clip0_166_21)">
<rect width="16" height="16" rx="4" fill="url(#paint0_linear_166_21)"/>
<path d="M3 10.5387L8 2L13 10.5387L11.5316 11.7341L8.75033 9.81104H10.3418L8 5.65854L5.65821 9.81104H7.24967L4.46838 11.7341L3 10.5387Z" fill="#ED1B24"/>
<path d="M7.3816 12.8589C7.3816 12.889 7.37317 12.9177 7.35666 12.9427L6.75741 13.8795L6.74406 13.9002H6.31754L6.36385 13.829L6.99426 12.8453H6.582L6.27569 13.325L6.26234 13.3466H6.09049L6.41015 12.8453H6.09761C6.06701 12.8453 6.03905 12.8522 6.01391 12.8661C5.98842 12.8802 5.96791 12.8999 5.95158 12.9247L5.33897 13.8795L5.32562 13.9002H4.89999L4.94541 13.829L5.52062 12.931L5.4102 12.7732L5.35945 12.7002H7.22844C7.25785 12.7002 7.28543 12.7086 7.30947 12.7254C7.33056 12.7395 7.35076 12.7589 7.3629 12.7813C7.37567 12.805 7.38155 12.8315 7.3816 12.8589Z" fill="black"/>
<path fill-rule="evenodd" clip-rule="evenodd" d="M8.07969 13.9002H8.50887L8.52223 13.8795L9.12237 12.9409C9.13765 12.9157 9.14641 12.888 9.14641 12.8589C9.14634 12.816 9.13156 12.7785 9.10189 12.748C9.07262 12.7162 9.03441 12.7002 8.99148 12.7002H7.70482L7.69057 12.7209L7.65585 12.7741L7.60865 12.8453H8.75908L8.17361 13.755H7.91674C7.88627 13.755 7.85898 13.7472 7.83393 13.7334C7.82129 13.7264 7.80954 13.7186 7.7992 13.7091L7.7716 13.6757L7.59441 13.3998H8.35839L8.37174 13.3782L8.40469 13.325L8.44832 13.2538H7.36379C7.34855 13.2538 7.33338 13.2558 7.31927 13.2601L7.2792 13.279C7.25776 13.2929 7.23856 13.314 7.22488 13.3358C7.21213 13.3596 7.20618 13.3859 7.20618 13.4133C7.20623 13.4433 7.21472 13.4713 7.23112 13.4963L7.41276 13.7767C7.43715 13.8155 7.46978 13.847 7.50893 13.8686C7.54891 13.8897 7.59201 13.9002 7.63715 13.9002H8.07969Z" fill="black"/>
<path d="M10.6477 13.4097L11.1 12.7002H9.21764L9.26751 12.7723L9.37614 12.9328L8.80004 13.829L8.75463 13.9002H9.18114L9.19449 13.8795L9.80443 12.9247C9.82078 12.8999 9.84123 12.8802 9.86676 12.8661C9.8919 12.8522 9.91986 12.8453 9.95046 12.8453H10.5835L10.2861 13.3052C10.2698 13.33 10.2494 13.3496 10.2238 13.3638C10.1984 13.3778 10.1716 13.3845 10.1428 13.3845H9.58094L9.56758 13.407L9.53463 13.462L9.49367 13.5324H10.4251C10.4703 13.5324 10.5142 13.5206 10.5533 13.499C10.5911 13.4763 10.6234 13.4466 10.6477 13.4097Z" fill="black"/>
</g>
<defs>
<linearGradient id="paint0_linear_166_21" x1="8" y1="0" x2="8" y2="16" gradientUnits="userSpaceOnUse">
<stop stop-color="white"/>
<stop offset="1" stop-color="#E2E2E2"/>
</linearGradient>
<clipPath id="clip0_166_21">
<rect width="16" height="16" fill="white"/>
</clipPath>
</defs>
</svg>
