<svg width="256" height="256" viewBox="0 0 256 256" fill="none" xmlns="http://www.w3.org/2000/svg">
<g clip-path="url(#clip0_166_85)">
<rect width="256" height="256" rx="64" fill="url(#paint0_linear_166_85)"/>
<path d="M48 168.619L128 32L208 168.619L184.506 187.746L140.005 156.977H165.469L128 90.5366L90.5314 156.977H115.995L71.4941 187.746L48 168.619Z" fill="#ED1B24"/>
<path d="M118.106 205.742C118.106 206.223 117.971 206.682 117.707 207.084L108.119 222.071L107.905 222.403H101.081L101.822 221.264L111.908 205.526H105.312L100.411 213.2L100.197 213.546H97.4478L102.562 205.526H97.5618C97.0722 205.526 96.6248 205.635 96.2226 205.857C95.8147 206.083 95.4865 206.398 95.2253 206.795L85.4235 222.071L85.2098 222.403H78.3999L79.1265 221.264L88.3299 206.896L86.5633 204.372L85.7512 203.203H115.655C116.126 203.203 116.567 203.337 116.952 203.607C117.289 203.833 117.612 204.143 117.806 204.501C118.011 204.881 118.105 205.304 118.106 205.742Z" fill="black"/>
<path fill-rule="evenodd" clip-rule="evenodd" d="M129.275 222.403H136.142L136.356 222.071L145.958 207.055C146.202 206.652 146.343 206.208 146.343 205.742C146.341 205.057 146.105 204.455 145.63 203.968C145.162 203.46 144.551 203.203 143.864 203.203H123.277L123.049 203.535L122.494 204.386L121.738 205.526H140.145L130.778 220.081H126.668C126.18 220.08 125.744 219.956 125.343 219.734C125.141 219.623 124.953 219.498 124.787 219.345L124.346 218.811L121.511 214.397H133.734L133.948 214.051L134.475 213.2L135.173 212.06H117.821C117.577 212.06 117.334 212.094 117.108 212.161L116.467 212.464C116.124 212.687 115.817 213.025 115.598 213.373C115.394 213.753 115.299 214.175 115.299 214.613C115.3 215.092 115.436 215.541 115.698 215.941L118.604 220.427C118.994 221.048 119.517 221.552 120.143 221.898C120.783 222.235 121.472 222.403 122.194 222.403H129.275Z" fill="black"/>
<path d="M170.363 214.556L177.6 203.203H147.482L148.28 204.357L150.018 206.925L140.801 221.264L140.074 222.403H146.898L147.112 222.071L156.871 206.795C157.132 206.398 157.46 206.083 157.868 205.857C158.27 205.635 158.718 205.526 159.207 205.526H169.337L164.578 212.882C164.317 213.28 163.99 213.594 163.581 213.82C163.175 214.044 162.746 214.152 162.285 214.152H153.295L153.081 214.513L152.554 215.392L151.899 216.518H166.801C167.525 216.518 168.228 216.329 168.852 215.984C169.458 215.621 169.975 215.145 170.363 214.556Z" fill="black"/>
</g>
<defs>
<linearGradient id="paint0_linear_166_85" x1="128" y1="0" x2="128" y2="256" gradientUnits="userSpaceOnUse">
<stop stop-color="white"/>
<stop offset="1" stop-color="#E2E2E2"/>
</linearGradient>
<clipPath id="clip0_166_85">
<rect width="256" height="256" fill="white"/>
</clipPath>
</defs>
</svg>
