<svg width="60" height="60" viewBox="0 0 60 60" fill="none" xmlns="http://www.w3.org/2000/svg">
<g clip-path="url(#clip0_166_77)">
<rect width="60" height="60" rx="15" fill="url(#paint0_linear_166_77)"/>
<path d="M11.25 39.5201L30 7.5L48.75 39.5201L43.2436 44.0029L32.8137 36.7914H38.7817L30 21.2195L21.2183 36.7914H27.1863L16.7564 44.0029L11.25 39.5201Z" fill="#ED1B24"/>
<path d="M27.681 48.2208C27.681 48.3336 27.6494 48.4412 27.5875 48.5352L25.3403 52.048L25.2902 52.1257H23.6908L23.8644 51.8586L26.2285 48.1701H24.6825L23.5339 49.9687L23.4838 50.0498H22.8393L24.0381 48.1701H22.866C22.7513 48.1701 22.6464 48.1957 22.5522 48.2478C22.4566 48.3007 22.3796 48.3746 22.3184 48.4676L20.0211 52.048L19.9711 52.1257H18.375L18.5453 51.8586L20.7023 48.4912L20.2883 47.8996L20.0979 47.6257H27.1067C27.2169 47.6257 27.3204 47.6572 27.4105 47.7204C27.4896 47.7733 27.5653 47.846 27.6109 47.93C27.6588 48.0189 27.6808 48.1181 27.681 48.2208Z" fill="black"/>
<path fill-rule="evenodd" clip-rule="evenodd" d="M30.2988 52.1257H31.9083L31.9583 52.048L34.2089 48.5284C34.2662 48.4341 34.299 48.3299 34.299 48.2208C34.2988 48.0601 34.2433 47.9192 34.1321 47.8049C34.0223 47.6858 33.8791 47.6257 33.718 47.6257H28.8931L28.8396 47.7035L28.7094 47.903L28.5325 48.1701H32.8465L30.651 51.5814H29.6878C29.5735 51.5812 29.4712 51.5521 29.3772 51.5003C29.3298 51.4741 29.2858 51.4448 29.247 51.409L29.1435 51.2839L28.479 50.2493H31.344L31.394 50.1682L31.5176 49.9687L31.6812 49.7016H27.6142C27.557 49.7016 27.5002 49.7094 27.4473 49.7253L27.297 49.7963C27.2166 49.8485 27.1446 49.9276 27.0933 50.0093C27.0455 50.0983 27.0232 50.1972 27.0232 50.3C27.0234 50.4123 27.0552 50.5175 27.1167 50.6111L27.7979 51.6625C27.8893 51.8081 28.0117 51.9263 28.1585 52.0074C28.3084 52.0864 28.47 52.1257 28.6393 52.1257H30.2988Z" fill="black"/>
<path d="M39.9287 50.2865L41.625 47.6257H34.5662L34.7532 47.8962L35.1605 48.498L33.0001 51.8586L32.8298 52.1257H34.4293L34.4793 52.048L36.7666 48.4676C36.8279 48.3745 36.9046 48.3007 37.0004 48.2478C37.0946 48.1957 37.1995 48.1701 37.3142 48.1701H39.6883L38.5731 49.8943C38.5117 49.9875 38.4352 50.0611 38.3393 50.1141C38.2441 50.1667 38.1435 50.1918 38.0355 50.1918H35.9285L35.8784 50.2764L35.7549 50.4826L35.6013 50.7463H39.094C39.2637 50.7463 39.4284 50.7021 39.5748 50.6212C39.7168 50.5362 39.8378 50.4246 39.9287 50.2865Z" fill="black"/>
</g>
<defs>
<linearGradient id="paint0_linear_166_77" x1="30" y1="0" x2="30" y2="60" gradientUnits="userSpaceOnUse">
<stop stop-color="white"/>
<stop offset="1" stop-color="#E2E2E2"/>
</linearGradient>
<clipPath id="clip0_166_77">
<rect width="60" height="60" fill="white"/>
</clipPath>
</defs>
</svg>
